<svg aria-hidden="true" style="position: absolute; width: 0; height: 0; overflow: hidden;" version="1.1"
    xmlns="http://www.w3.org/2000/svg"
    xmlns:xlink="http://www.w3.org/1999/xlink">
    <defs>
        <symbol id="icon-ice-cream" viewBox="0 0 50 50">
            <path fill="#d41442" style="fill: var(--color1, #d41442)" d="M50 25c0 13.807-11.193 25-25 25s-25-11.193-25-25c0-13.807 11.193-25 25-25s25 11.193 25 25z">
            </path>
            <path fill="#fff" style="fill: var(--color2, #fff)" d="M30.92 49.3l-0.13-4.89-11.020 0.050 0.030 5c-1.15-0.25-1.56-0.36-2.51-0.67-0.020-1.22-0.11-1.33-0.080-4.35-6.46-0.42-6.61-4.88-6.65-12.34-1.6-0.11-3.4-1.77-3.51-4.63-0.020-2.65 1.27-4.35 3.15-4.52 0-5.72 2.96-15.45 14.88-15.81 12.58 0.32 15.1 10.16 15.23 15.79 1.91 0.010 2.74 2.18 2.72 4.53 0.010 2.69-0.82 4.48-2.6 4.6-0.1 5.2 0.99 12.020-6.48 12.39 0.010 1.41 0 3.030 0.010 3.9-0.98 0.38-1.96 0.69-3.040 0.95zM34.56 41.66c3.76-0.21 2.85-6.54 2.83-9.54-3.37 0.010 0 0-3.37 0.010 0.030 2.53 0.74 6.16-4.35 6.2-5.38 0.030-4.53-2.11-4.66-6.34h-11.23c-0.070 5.79-0.42 9.65 4.6 9.67 3.3 0.12 7.63 0.010 16.18 0v0zM13.42 22.96l23.67-0.060c0.13-2.080-0.77-4.3-1.85-6.26-3.3 1.82-5.16 3.51-10.23 3.64-4.72 0.12-6.22-1.46-9.9-3.73-1.1 1.83-1.77 4.32-1.69 6.41v0zM10.83 25.83c-1.18 0.040-1.34 3.040 0.36 3.050 4.65 0.030 10.070 0 16.86-0.010 0.1 5.81-0.24 6.89 1.68 6.89 1.89 0 1.62-1.18 1.73-6.88 3.84-0.040 6.17-0.010 8.23 0 1.21-0.020 1.27-3.050 0.020-3.090-4.31 0.040-23.11-0.1-28.88 0.040v0zM16.68 14.24c4.4 4.4 12.38 4.4 16.78 0-4.55-5.53-12.2-5.57-16.78 0v0z"></path>
        </symbol>
    </defs>
</svg>