<svg aria-hidden="true" style="position: absolute; width: 0; height: 0; overflow: hidden;" version="1.1"
    xmlns="http://www.w3.org/2000/svg"
    xmlns:xlink="http://www.w3.org/1999/xlink">
    <defs>
        <symbol id="icon-ice-cream" viewBox="0 0 50 50">
            <path fill="#d41443" style="fill: var(--color1, #d41443)" d="M50 25c0 13.807-11.193 25-25 25s-25-11.193-25-25c0-13.807 11.193-25 25-25s25 11.193 25 25z">
            </path>
            <path fill="#fff" style="fill: var(--color2, #fff)" d="M30.92 49.3l-0.13-4.89-11.020 0.050 0.030 5c-1.15-0.25-1.56-0.36-2.51-0.67-0.020-1.22-0.11-1.33-0.080-4.35-6.46-0.42-6.61-4.88-6.65-12.34-1.6-0.11-3.4-1.77-3.51-4.63-0.020-2.65 1.27-4.35 3.15-4.52 0-5.72 2.96-15.45 14.88-15.81 12.58 0.32 15.1 10.16 15.23 15.79 1.91 0.010 2.74 2.18 2.72 4.53 0.010 2.69-0.82 4.48-2.6 4.6-0.1 5.2 0.99 12.020-6.48 12.39 0.010 1.41 0 3.030 0.010 3.9-0.98 0.38-1.96 0.69-3.040 0.95zM34.56 41.66c3.76-0.21 2.85-6.54 2.83-9.54-3.37 0.010 0 0-3.37 0.010 0.030 2.53 0.74 6.16-4.35 6.2-5.38 0.030-4.53-2.11-4.66-6.34h-11.23c-0.070 5.79-0.42 9.65 4.6 9.67 3.3 0.12 7.63 0.010 16.18 0v0zM13.42 22.96l23.67-0.060c0.13-2.080-0.77-4.3-1.85-6.26-3.3 1.82-5.16 3.51-10.23 3.64-4.72 0.12-6.22-1.46-9.9-3.73-1.1 1.83-1.77 4.32-1.69 6.41v0zM10.83 25.83c-1.18 0.040-1.34 3.040 0.36 3.050 4.65 0.030 10.070 0 16.86-0.010 0.1 5.81-0.24 6.89 1.68 6.89 1.89 0 1.62-1.18 1.73-6.88 3.84-0.040 6.17-0.010 8.23 0 1.21-0.020 1.27-3.050 0.020-3.090-4.31 0.040-23.11-0.1-28.88 0.040v0zM16.68 14.24c4.4 4.4 12.38 4.4 16.78 0-4.55-5.53-12.2-5.57-16.78 0v0z"></path>
        </symbol>
        <symbol id="icon-telegram" viewBox="0 0 50 50">
            <path fill="#d41443" style="fill: var(--color1, #d41443)" d="M50 25c0 13.807-11.193 25-25 25s-25-11.193-25-25c0-13.807 11.193-25 25-25s25 11.193 25 25z"></path>
            <path fill="#fff" style="fill: var(--color2, #fff)" d="M20.105 28.711l-0.496 6.515c0.71 0 1.017-0.285 1.386-0.626l3.329-2.969 6.898 4.714c1.265 0.658 2.156 0.311 2.498-1.086l4.527-19.801 0.001-0.001c0.401-1.745-0.676-2.428-1.909-2l-26.613 9.509c-1.816 0.658-1.789 1.603-0.309 2.031l6.804 1.975 15.804-9.229c0.744-0.46 1.42-0.205 0.864 0.254l-12.784 10.713z"></path>
        </symbol>
        <symbol id="icon-vector" viewBox="0 0 50 50">
            <path fill="none" stroke="#fff" style="stroke: var(--color2, #fff)" stroke-linejoin="round" stroke-linecap="round" stroke-miterlimit="4" stroke-width="10" d="M13.082 5l22.138 20-22.138 20"></path>
        </symbol>
        <symbol id="icon-burger" viewBox="0 0 50 50">
            <path fill="none" stroke="#d41443" style="stroke: var(--color1, #d41443)" stroke-linejoin="miter" stroke-linecap="butt" stroke-miterlimit="4" stroke-width="2.5" d="M0 10h50"></path>
            <path fill="none" stroke="#d41443" style="stroke: var(--color1, #d41443)" stroke-linejoin="miter" stroke-linecap="butt" stroke-miterlimit="4" stroke-width="2.5" d="M0 25h50"></path>
            <path fill="none" stroke="#d41443" style="stroke: var(--color1, #d41443)" stroke-linejoin="miter" stroke-linecap="butt" stroke-miterlimit="4" stroke-width="2.5" d="M0 40h50"></path>
        </symbol>
        <symbol id="icon-cross" viewBox="0 0 50 50">
            <path fill="none" stroke="#fff" style="stroke: var(--color2, #fff)" stroke-linejoin="miter" stroke-linecap="butt" stroke-miterlimit="4" stroke-width="3.125" d="M3.935 3.125l42.13 43.75"></path>
            <path fill="none" stroke="#fff" style="stroke: var(--color2, #fff)" stroke-linejoin="miter" stroke-linecap="butt" stroke-miterlimit="4" stroke-width="3.125" d="M3.125 46.065l43.75-42.13"></path>
        </symbol>
        <symbol id="icon-github" viewBox="0 0 50 50">
            <path fill="#d41443" style="fill: var(--color1, #d41443)" d="M50 25c0 13.807-11.193 25-25 25s-25-11.193-25-25c0-13.807 11.193-25 25-25s25 11.193 25 25z"></path>
            <path fill="#fff" style="fill: var(--color2, #fff)" d="M25 10.294c-8.077 0-14.706 6.629-14.706 14.706 0 6.893 4.837 13.154 11.259 14.706v-4.865c-0.636 0.139-1.222 0.143-1.87-0.048-0.869-0.256-1.575-0.835-2.099-1.718-0.334-0.564-0.926-1.175-1.544-1.13l-0.151-1.717c1.336-0.114 2.491 0.814 3.177 1.966 0.305 0.513 0.655 0.813 1.106 0.946 0.435 0.128 0.902 0.067 1.447-0.126 0.137-1.090 0.636-1.498 1.013-2.072v-0.001c-3.83-0.571-5.357-2.603-5.963-4.207-0.803-2.13-0.372-4.79 1.048-6.472 0.028-0.033 0.077-0.119 0.058-0.178-0.651-1.966 0.142-3.593 0.171-3.766 0.751 0.222 0.873-0.224 3.263 1.229l0.413 0.248c0.173 0.103 0.119 0.044 0.291 0.031 0.998-0.271 2.050-0.421 3.086-0.434 1.044 0.013 2.090 0.163 3.129 0.445l0.134 0.013c-0.012-0.002 0.036-0.008 0.117-0.056 2.986-1.808 2.878-1.217 3.679-1.478 0.029 0.173 0.812 1.826 0.168 3.767-0.087 0.267 2.588 2.717 1.106 6.649-0.606 1.605-2.132 3.637-5.963 4.208v0.001c0.491 0.748 1.081 1.146 1.078 2.69v6.073c6.423-1.552 11.259-7.813 11.259-14.706 0-8.077-6.628-14.706-14.706-14.706v0z"></path>
        </symbol>
        <symbol id="icon-facebook" viewBox="0 0 50 50">
            <path fill="#d41443" style="fill: var(--color1, #d41443)" d="M25 50c13.807 0 25-11.193 25-25s-11.193-25-25-25c-13.807 0-25 11.193-25 25s11.193 25 25 25z"></path>
            <path fill="#fff" style="fill: var(--color2, #fff)" d="M31.946 24.971h-4.078v15.029h-6.179v-15.029h-2.939v-5.282h2.939v-3.418c0-2.444 1.154-6.271 6.234-6.271l4.577 0.019v5.127h-3.321c-0.545 0-1.311 0.274-1.311 1.44v3.109h4.618l-0.54 5.277z"></path>
        </symbol>
        <symbol id="icon-home" viewBox="0 0 50 50">
            <path fill="#d41443" style="fill: var(--color1, #d41443)" d="M49.403 24.442c0.864-0.95 0.781-2.407-0.187-3.253l-21.306-18.643c-0.967-0.846-2.518-0.828-3.464 0.040l-21.378 19.597c-0.947 0.868-0.993 2.323-0.103 3.248l0.536 0.558c0.889 0.925 2.327 1.036 3.208 0.246l1.598-1.431v20.947c0 1.285 1.041 2.326 2.326 2.326h8.333c1.284 0 2.326-1.040 2.326-2.326v-14.654h10.629v14.654c-0.019 1.284 0.9 2.325 2.185 2.325h8.831c1.284 0 2.326-1.041 2.326-2.326v-20.651c0 0 0.441 0.387 0.986 0.865 0.543 0.478 1.685 0.095 2.549-0.857l0.606-0.666z"></path>
        </symbol>
        <symbol id="icon-arrow" viewBox="0 0 50 50">
            <path d="M30.335 42.835 45.96 27.21a3.125 3.125 0 0 0 0-4.419L30.335 7.166a3.125 3.125 0 0 0-4.419 4.419l10.29 10.29H6.25a3.125 3.125 0 1 0 0 6.25h29.956l-10.29 10.29c-.61.61-.915 1.41-.915 2.21s.305 1.6.915 2.21a3.125 3.125 0 0 0 4.419 0z"/>
        </symbol>
    </defs>
</svg>